<svg width="400" height="400" viewBox="0 0 400 400" xmlns="http://www.w3.org/2000/svg">
  <g transform="translate(200,150) scale(0.7)">
    <polygon points="-100,-50 0,-100 100,-50 0,0" fill="#333"/>
    <polygon points="-100,-50 0,0 0,50 -100,0" fill="#CCC"/>
    <polygon points="100,-50 0,0 0,50 100,0" fill="#CCC"/>
    <polygon points="-100,0 0,50 100,0 0,-50" fill="#6C5CE7"/>
    <polygon points="-80,-40 0,-90 80,-40 0,-10" fill="#000"/>

    <g transform="translate(-150,50)">
        <rect x="0" y="0" width="30" height="10" fill="#CCC" transform="rotate(30)"/>
        <rect x="5" y="10" width="30" height="10" fill="#CCC" transform="rotate(30)"/>
        <rect x="10" y="20" width="30" height="10" fill="#CCC" transform="rotate(30)"/>
    </g>
    <g transform="translate(120,50)">
        <rect x="0" y="0" width="30" height="10" fill="#CCC" transform="rotate(-30)"/>
        <rect x="-5" y="10" width="30" height="10" fill="#CCC" transform="rotate(-30)"/>
        <rect x="-10" y="20" width="30" height="10" fill="#CCC" transform="rotate(-30)"/>
    </g>
    <g transform="translate(-50,100)">
        <polygon points="0,0 30,0 30,15 0,15" fill="#FFF" transform="rotate(30)"/>
        <polygon points="-5,5 25,5 25,20 -5,20" fill="#FFF" transform="rotate(30)"/>
        <polygon points="-10,10 20,10 20,25 -10,25" fill="#FFF" transform="rotate(30)"/>
    </g>
  </g>
</svg>