<svg width="400" height="400" viewBox="0 0 400 400" xmlns="http://www.w3.org/2000/svg">
  <defs>
    <linearGradient id="grad1" x1="0%" y1="0%" x2="100%" y2="0%">
      <stop offset="0%" style="stop-color:#00CEC9;stop-opacity:1" />
      <stop offset="100%" style="stop-color:#333;stop-opacity:1" />
    </linearGradient>
  </defs>
  <g transform="translate(0,0) rotate(0)">
    <polygon points="50,300 150,300 150,200 50,200" fill="#333"/>
    <polygon points="150,200 200,175 200,275 150,300" fill="#000"/>
    <polygon points="50,200 100,175 200,175 150,200" fill="#CCC"/>

    <polygon points="100,175 125,162.5 225,162.5 200,175" fill="#333"/>
    <polygon points="125,162.5 175,137.5 275,137.5 225,162.5" fill="#00CEC9"/>
    <polygon points="175,137.5 200,125 300,125 275,137.5" fill="#333"/>
    <polygon points="200,125 225,112.5 325,112.5 300,125" fill="#00CEC9"/>

    <polygon points="250,300 350,300 350,200 250,200" fill="#333"/>
    <polygon points="350,200 400,175 400,275 350,300" fill="#000"/>
    <polygon points="250,200 300,175 400,175 350,200" fill="#CCC"/>

    <polygon points="300,175 325,162.5 325,75 300,100" fill="#333"/>
    <polygon points="325,75 350,62.5 350,162.5" fill="#CCC"/>
    <polygon points="325,162.5 350,150 350,62.5 325,75" fill="#000"/>

    <polygon points="275,175 300,162.5 300,75 275,100" fill="#333"/>
    <polygon points="300,75 325,62.5 325,162.5" fill="#CCC"/>
    <polygon points="300,162.5 325,150 325,62.5 300,75" fill="#000"/>

  <polygon points="0,300 400,300 400,400 0,400" fill="#FFF"/>
  </g>
</svg>