<svg width="400" height="400" viewBox="0 0 400 400" xmlns="http://www.w3.org/2000/svg">
  <defs>
    <linearGradient id="roadGradient" x1="0%" y1="0%" x2="100%" y2="0%">
      <stop offset="0%" style="stop-color:#333;stop-opacity:1" />
      <stop offset="100%" style="stop-color:#000;stop-opacity:1" />
    </linearGradient>
  </defs>
  <polygon points="50,300 350,300 300,350 0,350" style="fill:url(#roadGradient);stroke:none" />
  <polygon points="150,50 175,100 325,100 300,50" style="fill:#CCC;stroke:none" transform="translate(25,200)"/>
  <polygon points="175,100 325,100 300,150 150,150" style="fill:#CCC;stroke:none" transform="translate(25,200)"/>

  <polygon points="100,100 125,150 125,300 100,250" style="fill:#333;stroke:none" />
  <polygon points="125,150 150,100 150,250 125,300" style="fill:#333;stroke:none" />
  <polygon points="100,250 125,300 125,350 100,300" style="fill:#000;stroke:none" />
  <polygon points="125,300 150,250 150,300 125,350" style="fill:#000;stroke:none" />

  <polygon points="100,100 150,100 150,250 100,250" style="fill:#CCC;stroke:none" />
  <polygon points="100,250 150,250 150,300 100,300" style="fill:#333;stroke:none" />

  <circle cx="125" cy="140" r="15" fill="#E84855" />
</svg>