<svg width="400" height="400" viewBox="0 0 400 400" xmlns="http://www.w3.org/2000/svg">
  <defs>
    <linearGradient id="grad1" x1="0%" y1="0%" x2="100%" y2="0%">
      <stop offset="0%" style="stop-color:#000;stop-opacity:1" />
      <stop offset="100%" style="stop-color:#333;stop-opacity:1" />
    </linearGradient>
  </defs>
  <g transform="translate(200,200) scale(0.8)">

    <polygon fill="#CCC" points="-50,-50 -30,-30 50,-30 30,-50"/>
    <polygon fill="#333" points="-50,-50 -30,-70 30,-70 50,-50"/>
    <polygon fill="#0984E3" points="-30,-70 -10,-90 10,-90 30,-70"/>
    <polygon fill="#000" points="-10,-90 10,-90 10,-110 -10,-110"/>

    <polygon fill="#CCC" points="-100,-30 -80,-10 0,-10 -20,-30"/>
    <polygon fill="#333" points="-100,-30 -80,-50 0,-50 -20,-30"/>
    <polygon fill="#0984E3" points="-80,-50 -60,-70 20,-70 0,-50"/>
    <polygon fill="#000" points="-60,-70 -40,-90 40,-90 20,-70"/>
    <polygon fill="#FFF" points="-40,-90 -20,-110 20,-110 40,-90"/>

    <polygon fill="#CCC" points="30,-10 50,10 130,10 110,-10"/>
    <polygon fill="#333" points="30,-10 50,-30 130,-30 110,-10"/>
    <polygon fill="#0984E3" points="50,-30 70,-50 150,-50 130,-30"/>
    <polygon fill="#000" points="70,-50 90,-70 170,-70 150,-50"/>
     <polygon fill="#FFF" points="90,-70 110,-90 190,-90 170,-70"/>

    <polygon fill="#CCC" points="-130,10 -110,30 -30,30 -50,10"/>
    <polygon fill="#333" points="-130,10 -110,-10 -30,-10 -50,10"/>
    <polygon fill="#0984E3" points="-110,-10 -90,-30 -10,-30 -30,-10"/>
    <polygon fill="#000" points="-90,-30 -70,-50 10,-50 -10,-30"/>
    <polygon fill="#FFF" points="-70,-50 -50,-70 30,-70 10,-50"/>

  </g>
</svg>