<svg width="400" height="400" viewBox="0 0 400 400" xmlns="http://www.w3.org/2000/svg">
  <g transform="translate(50,50)">
    <polygon points="0,100 100,50 200,100 100,150" fill="#CCC"/>
    <polygon points="100,50 200,0 300,50 200,100" fill="#CCC"/>
    <polygon points="200,0 300,50 300,150 200,100" fill="#CCC"/>
    <polygon points="300,50 400,100 400,200 300,150" fill="#CCC"/>
    <polygon points="400,100 300,150 300,250 400,200" fill="#CCC"/>
    <polygon points="300,150 200,100 200,200 300,250" fill="#CCC"/>
    <polygon points="200,100 100,50 100,150 200,200" fill="#CCC"/>
    <polygon points="100,50 0,100 0,200 100,150" fill="#CCC"/>
    <polygon points="0,100 100,150 100,250 0,200" fill="#CCC"/>
    <polygon points="100,150 200,200 200,300 100,250" fill="#CCC"/>
    <polygon points="200,200 300,250 300,350 200,300" fill="#CCC"/>
    <polygon points="300,250 400,200 400,300 300,350" fill="#CCC"/>
    <polygon points="0,200 100,250 100,350 0,300" fill="#CCC"/>

    <polygon points="150,20 250,20 250,40 150,40" fill="#333"/>
    <polygon points="150,40 250,40 250,60 150,60" fill="#000"/>
    <polygon points="150,60 250,60 250,80 150,80" fill="#333"/>

    <polygon points="120,80 140,100 260,100 280,80" fill="#636E72"/>
    <polygon points="140,100 260,100 260,120 140,120" fill="#000"/>
    <polygon points="140,120 260,120 240,140 160,140" fill="#636E72"/>

    <polygon points="160,140 240,140 240,160 160,160" fill="#333"/>
    <polygon points="160,160 240,160 240,180 160,180" fill="#000"/>
    <polygon points="160,180 240,180 240,200 160,200" fill="#333"/>
  </g>
</svg>