<svg width="400" height="400" viewBox="0 0 400 400" xmlns="http://www.w3.org/2000/svg">
  <defs>
    <linearGradient id="grad1" x1="0%" y1="0%" x2="100%" y2="100%">
      <stop offset="0%" style="stop-color:#A855F7;stop-opacity:1" />
      <stop offset="100%" style="stop-color:#333;stop-opacity:1" />
    </linearGradient>
  </defs>
  <g transform="translate(100,50) scale(0.8)">
    <polygon points="100,0 200,50 200,150 100,100" fill="#333"/>
    <polygon points="200,50 300,0 300,100 200,150" fill="#CCC"/>
    <polygon points="100,100 200,150 200,250 100,200" fill="#000"/>
    <polygon points="200,150 300,100 300,200 200,250" fill="#333"/>
    <polygon points="200,250 100,200 100,300 200,350" fill="#CCC"/>
    <polygon points="200,250 300,200 300,300 200,350" fill="#000"/>
    <polygon points="100,0 300,0 300,100 100,100" fill="#FFF"/>
    <polygon points="100,300 300,300 300,200 100,200" fill="#CCC"/>
  </g>
  <g transform="translate(-50,50) scale(0.5)">
    <ellipse cx="50" cy="50" rx="20" ry="10" fill="url(#grad1)" transform="rotate(30,50,50)"/>
    <ellipse cx="100" cy="100" rx="20" ry="10" fill="url(#grad1)" transform="rotate(30,100,100)"/>
    <ellipse cx="150" cy="150" rx="20" ry="10" fill="url(#grad1)" transform="rotate(30,150,150)"/>
    <ellipse cx="200" cy="200" rx="20" ry="10" fill="url(#grad1)" transform="rotate(30,200,200)"/>
  </g>
</svg>